<?xml version="1.0" encoding="UTF-8"?><svg id="Layer_1" xmlns="http://www.w3.org/2000/svg" viewBox="0 0 250 250"><defs><style>.cls-1{fill:#1e5a64;}.cls-2{fill:#353a49;}</style></defs><path class="cls-2" d="M161.07,118.55c.39,2.73-1.35,5.29-3.8,5.81l-20.56,5.31c-.92.19-1.59,1.09-1.59,2.12h0c0,15.53,2.29,27.59,6.77,42.31l2.43,7.98c.89,2.93-.53,6.11-3.18,7.09-.54.2-1.08.29-1.62.29-2.11,0-4.08-1.47-4.79-3.81l-9.73-29.53-9.73,29.53c-.91,2.99-3.88,4.57-6.57,3.45-2.57-1.07-3.85-4.28-2.97-7.17l2.39-7.84c4.48-14.72,6.77-26.77,6.77-42.31h0c0-1.04-.67-1.93-1.59-2.12l-20.56-5.31c-2.46-.52-4.19-3.08-3.8-5.81.41-2.86,2.86-4.75,5.41-4.21l17.09,3.04c8.99,1.6,18.14,1.6,27.13,0l17.09-3.04c2.55-.54,5,1.36,5.41,4.22ZM125,116.17c4.85,0,8.78-4.5,8.78-10.04s-3.93-10.04-8.78-10.04-8.78,4.5-8.78,10.04,3.93,10.04,8.78,10.04Z"/><path class="cls-1" d="M238.92,143.55l.03-37.58c.05-1.63-.54-3.19-1.62-4.31-1.02-1.05-2.39-1.64-3.85-1.64l-17.51-.06-.19-.67c-3.83-13.29-9.82-24.82-17.81-34.3-1.49-1.77-3.13-3.69-5.04-5.71-15.07-16-35.09-26.07-56.35-28.34l-2.37-.25c-3.03-.32-6.07-.49-9.13-.49s-6.29.17-9.55.5l-2.23.25c-37.22,4.17-68.99,31.63-79.07,68.33l-.19.69h-17.3c-3.2.01-5.71,2.53-5.71,5.74v38.07c.33,2.86,2.69,5.1,5.49,5.11l21.17.06.2.67c4.24,14.27,11.39,26.68,21.25,36.88l1.4,1.45c14.41,14.91,34.15,24.3,55.59,26.44l.48.05.24.42c2.03,3.59,5.71,5.43,9.62,4.82,3.21-.5,6.77-3.09,7.37-7.05.18-1.18.17-2.75-.01-4.02-.54-3.77-3.93-6.35-6.98-6.96-3.76-.74-7.47.85-9.68,4.17l-.31.47-.56-.06c-17.98-1.8-35.25-9.82-48.61-22.58l-.38-.36c-.34-.32-.64-.6-.97-.95l-3.58-3.84c-.38-.4-.67-.77-1.01-1.18l-.33-.41c-12.49-15.13-19.27-33.99-19.09-53.1.18-18.67,6.34-36.2,17.83-50.7,13.56-17.11,33.72-28.36,55.31-30.87,25.47-2.96,50.47,5.87,68.57,24.23l1.9,1.93c1.22,1.23,2.15,2.41,3.24,3.77l.16.21c11.24,14.12,17.56,30.92,18.29,48.59l.27,7.99c0,.32-.11.65-.24,1.04-.06.17-.16.45-.17.55-.71,7.13-1.88,13.03-3.57,18.04-.02.07-.04.21-.05.34l29.86-.06c2.73,0,5.21-2.54,5.21-5.33Z"/><path class="cls-1" d="M148.19,188.25c28.01-9.82,46.82-36.35,46.82-66.03-.13-38.59-31.59-69.94-70.15-69.94h-.12c-37.93.13-69.21,31.12-69.74,69.08-.39,30.02,18.42,56.9,46.8,66.89.21.08.37,0,.44-.06.15-.11.23-.29.21-.46-.11-.78-.23-1.58-.35-2.38-.23-1.58-.48-3.21-.65-4.82-.1-.66-.51-1.23-1.16-1.58-22.81-9.94-37.41-32.46-37.14-57.33.34-33.5,27.84-60.98,61.32-61.25.17,0,.33,0,.5,0,16.43,0,31.89,6.37,43.59,17.98,11.8,11.71,18.3,27.29,18.3,43.88,0,24.53-14.59,46.81-37.18,56.74-.65.27-1.07.85-1.13,1.55l-1,7.23c-.04.24.07.38.15.44.1.09.29.15.49.07Z"/><path class="cls-1" d="M150.74,160.83c.08.05.29.14.52-.03,12.79-8.73,20.42-23.16,20.42-38.59.03-12.74-5.03-24.66-14.26-33.55-8.79-8.47-20.21-13.07-32.32-13.07-.64,0-1.27.01-1.91.04h0c-24.82.93-44.53,21.16-44.86,46.05-.19,15.68,7.44,30.33,20.42,39.18.2.13.41.03.47,0,.06-.03.27-.16.27-.42-.19-2.7-.21-5.21-.07-8.1.06-.74-.21-1.39-.78-1.9-8.03-7.54-12.49-18.18-12.23-29.18.54-20.25,16.83-36.74,37.08-37.55,10.58-.4,20.6,3.39,28.24,10.72,7.66,7.36,11.88,17.25,11.88,27.84s-4.34,20.71-12.22,28.16c-.51.51-.79,1.2-.79,1.93.14,2.75.05,5.49-.07,8.03-.02.21.1.36.22.43Z"/></svg>